<mxfile host="app.diagrams.net" agent="Mozilla/5.0 (Windows NT 10.0; Win64; x64) AppleWebKit/537.36 (KHTML, like Gecko) Chrome/130.0.0.0 Safari/537.36" version="24.7.16">
  <diagram name="Page-1" id="1yUS7EdiR7NuHxqZW2vT">
    <mxGraphModel dx="1290" dy="522" grid="1" gridSize="10" guides="1" tooltips="1" connect="1" arrows="1" fold="1" page="1" pageScale="1" pageWidth="850" pageHeight="1100" math="0" shadow="0">
      <root>
        <mxCell id="0" />
        <mxCell id="1" parent="0" />
        <mxCell id="9uqNPTlfgQc7huUBE9A8-6" style="edgeStyle=orthogonalEdgeStyle;rounded=0;orthogonalLoop=1;jettySize=auto;html=1;exitX=0.5;exitY=1;exitDx=0;exitDy=0;entryX=0.5;entryY=0;entryDx=0;entryDy=0;" edge="1" parent="1" source="9uqNPTlfgQc7huUBE9A8-1" target="9uqNPTlfgQc7huUBE9A8-3">
          <mxGeometry relative="1" as="geometry" />
        </mxCell>
        <mxCell id="9uqNPTlfgQc7huUBE9A8-7" style="edgeStyle=orthogonalEdgeStyle;rounded=0;orthogonalLoop=1;jettySize=auto;html=1;exitX=0.5;exitY=1;exitDx=0;exitDy=0;entryX=0.5;entryY=0;entryDx=0;entryDy=0;" edge="1" parent="1" source="9uqNPTlfgQc7huUBE9A8-1" target="9uqNPTlfgQc7huUBE9A8-2">
          <mxGeometry relative="1" as="geometry" />
        </mxCell>
        <mxCell id="9uqNPTlfgQc7huUBE9A8-8" style="edgeStyle=orthogonalEdgeStyle;rounded=0;orthogonalLoop=1;jettySize=auto;html=1;exitX=0.5;exitY=1;exitDx=0;exitDy=0;entryX=0.5;entryY=0;entryDx=0;entryDy=0;" edge="1" parent="1" source="9uqNPTlfgQc7huUBE9A8-1" target="9uqNPTlfgQc7huUBE9A8-4">
          <mxGeometry relative="1" as="geometry" />
        </mxCell>
        <mxCell id="9uqNPTlfgQc7huUBE9A8-9" style="edgeStyle=orthogonalEdgeStyle;rounded=0;orthogonalLoop=1;jettySize=auto;html=1;exitX=0.5;exitY=1;exitDx=0;exitDy=0;entryX=0.5;entryY=0;entryDx=0;entryDy=0;" edge="1" parent="1" source="9uqNPTlfgQc7huUBE9A8-1" target="9uqNPTlfgQc7huUBE9A8-5">
          <mxGeometry relative="1" as="geometry" />
        </mxCell>
        <mxCell id="9uqNPTlfgQc7huUBE9A8-1" value="segregation_sort(array, start, end)" style="rounded=0;whiteSpace=wrap;html=1;" vertex="1" parent="1">
          <mxGeometry x="365" y="30" width="120" height="60" as="geometry" />
        </mxCell>
        <mxCell id="9uqNPTlfgQc7huUBE9A8-2" value="partition(array, start, end, pivot)" style="rounded=0;whiteSpace=wrap;html=1;" vertex="1" parent="1">
          <mxGeometry x="220" y="150" width="120" height="60" as="geometry" />
        </mxCell>
        <mxCell id="9uqNPTlfgQc7huUBE9A8-3" value="calculate_pivot_index(start, end)" style="rounded=0;whiteSpace=wrap;html=1;" vertex="1" parent="1">
          <mxGeometry x="50" y="150" width="120" height="60" as="geometry" />
        </mxCell>
        <mxCell id="9uqNPTlfgQc7huUBE9A8-4" value="segregation_sort(end, left, array)" style="rounded=0;whiteSpace=wrap;html=1;" vertex="1" parent="1">
          <mxGeometry x="425" y="150" width="120" height="60" as="geometry" />
        </mxCell>
        <mxCell id="9uqNPTlfgQc7huUBE9A8-5" value="segregation_sort(start, right, array)" style="rounded=0;whiteSpace=wrap;html=1;" vertex="1" parent="1">
          <mxGeometry x="650" y="150" width="120" height="60" as="geometry" />
        </mxCell>
      </root>
    </mxGraphModel>
  </diagram>
</mxfile>
